<svg height="512pt" viewBox="0 -82 512.001 512" width="512pt" xmlns="http://www.w3.org/2000/svg"><path d="m400.042969 46.300781s-54.101563-36.273437-143.09375-38.796875c-5.339844-.152344-9.753907 4.140625-9.753907 9.484375v29.3125zm0 0" fill="#48ffe0"/><path d="m16.980469 261.421875h67.636719v-39.777344h-67.636719c-5.234375 0-9.480469 4.242188-9.480469 9.480469v20.816406c0 5.238282 4.246094 9.480469 9.480469 9.480469zm0 0" fill="#89b4c9"/><path d="m65.480469 261.523438h327.140625v-114.65625h-286.546875l-49.121094 101.03125c-3.0625 6.296874 1.523437 13.625 8.527344 13.625zm0 0" fill="#2f5e75"/><path d="m302.113281 208.890625h-153.96875l-27.320312-27.320313v-19.089843h181.289062zm0 0" fill="#618baa"/><path d="m7.5 151.269531v20.820313c0 5.242187 4.25 9.480468 9.480469 9.480468h267.539062v-39.78125h-267.539062c-5.230469 0-9.480469 4.25-9.480469 9.480469zm0 0" fill="#89b4c9"/><path d="m59.511719 141.789062c23.429687 16.570313 49.648437 24.960938 78.160156 24.960938h124.058594c4.597656 0 8.597656 3.25 9.507812 7.722656.492188 2.398438 1.042969 4.757813 1.671875 7.097656h11.609375v-39.78125zm0 0" fill="#618baa"/><path d="m164.660156 255.261719v8.058593c0 5.242188 4.238282 9.480469 9.480469 9.480469h166.609375c4.351562 0 8.019531-2.929687 9.128906-6.941406.230469-.808594.351563-1.660156.351563-2.539063v-30.300781h-163.332031c-12.277344 0-22.238282 9.960938-22.238282 22.242188zm0 0" fill="#89b4c9"/><path d="m301.101562 233.019531c13.339844 14.589844 30.070313 25.929688 48.777344 32.839844.230469-.808594.351563-1.660156.351563-2.539063v-30.300781zm0 0" fill="#618baa"/><path d="m20.589844 61.929688h62.324218c4.652344 0 8.425782 3.773437 8.425782 8.425781v20.496093c0 4.652344 3.769531 8.425782 8.421875 8.425782h22.171875c8.039062 0 15.878906-2.480469 22.457031-7.101563l51.042969-35.878906c17.15625-12.058594 37.621094-18.53125 58.59375-18.53125h137.378906c61.832031 0 112.878906 49.652344 113.09375 111.484375.214844 61.972656-49.957031 112.273438-111.878906 112.273438-54.105469 0-99.238282-38.40625-109.625-89.445313-2.054688-10.097656-10.96875-17.328125-21.269532-17.328125h-124.054687c-72.421875 0-110.582031-59.917969-122.785156-83.472656-2.210938-4.261719.898437-9.347656 5.703125-9.347656zm0 0" fill="#43a3f9"/><path d="m392.621094 243.027344c51.492187 0 93.382812-41.890625 93.382812-93.382813 0-51.492187-41.890625-93.382812-93.382812-93.382812-51.492188 0-93.382813 41.890625-93.382813 93.382812 0 51.492188 41.890625 93.382813 93.382813 93.382813zm0 0" fill="#1685fb"/><path d="m474.003906 149.644531c0 44.949219-36.4375 81.382813-81.382812 81.382813-44.945313 0-81.382813-36.433594-81.382813-81.382813 0-44.945312 36.4375-81.382812 81.382813-81.382812 44.945312 0 81.382812 36.4375 81.382812 81.382812zm0 0" fill="#bddff4"/><path d="m453.054688 149.644531c0 33.378907-27.054688 60.4375-60.433594 60.4375s-60.433594-27.058593-60.433594-60.4375c0-33.375 27.054688-60.433593 60.433594-60.433593s60.433594 27.058593 60.433594 60.433593zm0 0" fill="#618baa"/><path d="m411.691406 149.644531c0 10.535157-8.539062 19.070313-19.070312 19.070313s-19.070313-8.535156-19.070313-19.070313c0-10.53125 8.539063-19.070312 19.070313-19.070312s19.070312 8.539062 19.070312 19.070312zm0 0" fill="#bddff4"/><path d="m281.253906 98.515625v26.453125c0 2.621094-2.121094 4.742188-4.742187 4.742188h-57.199219c-5.082031 0-6.601562-6.910157-1.992188-9.042969l57.203126-26.453125c3.140624-1.453125 6.730468.839844 6.730468 4.300781zm0 0" fill="#618baa"/><path d="m291.171875 40.472656c0 7.0625-5.726563 12.789063-12.792969 12.789063-7.0625 0-12.789062-5.726563-12.789062-12.789063s5.726562-12.789062 12.789062-12.789062c7.066406 0 12.792969 5.726562 12.792969 12.789062zm0 0" fill="#bddff4"/><path d="m504.5 324.449219c0-8.550781-111.257812-15.484375-248.5-15.484375s-248.5 6.933594-248.5 15.484375c0 8.554687 111.257812 15.488281 248.5 15.488281s248.5-6.933594 248.5-15.488281zm0 0" fill="#618baa"/><path d="m16.980469 268.921875 141.183593.101563c2.351563 6.5625 8.617188 11.277343 15.976563 11.277343h58.597656c4.144531 0 7.5-3.359375 7.5-7.5s-3.355469-7.5-7.5-7.5h-58.597656c-1.09375 0-1.980469-.890625-1.980469-1.980469v-8.0625c0-8.125 6.609375-14.734374 14.738282-14.734374h128.433593.007813c8.269531 7.023437 17.484375 12.929687 27.390625 17.511718v5.285156c0 1.09375-.890625 1.980469-1.980469 1.980469h-73.488281c-4.140625 0-7.5 3.359375-7.5 7.5 0 4.144531 3.359375 7.5 7.5 7.5h73.488281c7.359375 0 13.621094-4.714843 15.972656-11.273437h35.898438c.007812 0 .011718-.003906.015625-.003906 20.386719 0 40.519531-5.242188 58.222656-15.15625 3.613281-2.019532 4.902344-6.59375 2.878906-10.207032-2.019531-3.613281-6.589843-4.902344-10.207031-2.878906-15.472656 8.664062-33.078125 13.242188-50.910156 13.242188-49.421875 0-92.433594-35.089844-102.273438-83.441407-2.75-13.519531-14.789062-23.332031-28.621094-23.332031h-124.054687c-28.832031 0-55.03125-10.101562-77.867187-30.023438-3.121094-2.722656-7.859376-2.402343-10.582032.722657-2.722656 3.121093-2.398437 7.859375.722656 10.582031 2.304688 2.007812 4.644532 3.929688 7.011719 5.761719h-39.976562c-9.363281 0-16.980469 7.617187-16.980469 16.980469v20.816406c0 9.363281 7.617188 16.980468 16.980469 16.980468h60.234375l-12.191406 25.074219h-48.042969c-9.363281 0-16.980469 7.617188-16.980469 16.980469v20.816406c0 9.363282 7.617188 16.980469 16.980469 16.980469zm268.054687-67.53125h-133.78125l-12.320312-12.320313h140.988281c1.476563 4.230469 3.1875 8.339844 5.113281 12.320313zm-147.363281-39.144531h124.054687c6.730469 0 12.585938 4.765625 13.921876 11.324218.035156.167969.074218.335938.105468.5h-234.203125v-24.78125h39.378907c17.617187 8.613282 36.59375 12.957032 56.742187 12.957032zm-122.671875 9.84375v-20.816406c0-1.09375.890625-1.980469 1.980469-1.980469h9.570312v24.777343h-9.570312c-1.089844 0-1.980469-.886718-1.980469-1.980468zm102.71875 16.980468 25.125 25.125c1.40625 1.40625 3.3125 2.199219 5.300781 2.199219h145.535157c2.140624 3.15625 4.429687 6.203125 6.851562 9.128907h-113.632812c-15.984376 0-29.058594 12.675781-29.707032 28.5h-18.613281v-7.058594c0-4.144532-3.355469-7.5-7.5-7.5-4.140625 0-7.5 3.355468-7.5 7.5v7.058594h-8.230469v-7.058594c0-4.144532-3.355468-7.5-7.5-7.5-4.140625 0-7.5 3.355468-7.5 7.5v7.058594h-8.230468v-7.058594c0-4.144532-3.355469-7.5-7.5-7.5-4.140626 0-7.5 3.355468-7.5 7.5v6.957031h-12.277344c-.519532-.167969-.847656-.515625-1.039063-.828125-.265625-.421875-.5-1.101562-.101562-1.917969l30.195312-62.105469zm-67.511719 55.546876c-1.4375 2.953124-1.96875 6.171874-1.617187 9.304687h-6.566406v-24.777344h15.707031zm-35.207031-13.492188c0-1.09375.890625-1.980469 1.980469-1.980469h10.042969v24.78125h-10.042969c-1.089844 0-1.980469-.890625-1.980469-1.984375zm0 0"/><path d="m25.449219 102.035156c2.492187 3.308594 7.195312 3.972656 10.503906 1.476563 3.308594-2.492188 3.96875-7.195313 1.476563-10.503907-6.871094-9.121093-11.867188-17.613281-15.039063-23.578124h60.523437c.511719 0 .925782.417968.925782.925781v20.5c0 8.777343 7.144531 15.921875 15.925781 15.921875h22.167969c9.632812 0 18.886718-2.925782 26.769531-8.464844l51.042969-35.878906c15.980468-11.230469 34.75-17.167969 54.28125-17.167969h4.660156c2.160156 8.878906 10.160156 15.5 19.691406 15.5 9.535156 0 17.53125-6.621094 19.695313-15.5h93.332031c58.023438 0 105.394531 46.660156 105.59375 104.011719.089844 26.605468-9.835938 51.984375-27.957031 71.453125-2.820313 3.035156-2.652344 7.78125.382812 10.601562 1.441407 1.34375 3.277344 2.011719 5.105469 2.011719 2.007812 0 4.015625-.804688 5.492188-2.394531 20.726562-22.269531 32.082031-51.292969 31.976562-81.722657-.226562-65.59375-54.324219-118.960937-120.59375-118.960937h-5.0625c-.21875-.132813-.445312-.257813-.679688-.371094-21.628906-10.414062-67.082031-28.144531-128.5-29.8867185-4.636718-.1250005-9 1.5742185-12.320312 4.8007815-3.320312 3.226562-5.148438 7.550781-5.148438 12.179687v14.230469c-17.429687 2.28125-34.003906 8.703125-48.574218 18.945312l-51.042969 35.875c-5.34375 3.753907-11.617187 5.738282-18.144531 5.738282h-22.171875c-.507813 0-.921875-.414063-.921875-.921875v-20.5c0-8.78125-7.144532-15.925781-15.925782-15.925781h-62.324218c-4.902344 0-9.351563 2.5-11.894532 6.6875-2.542968 4.179687-2.71875 9.269531-.46875 13.609374 3.363282 6.496094 9.082032 16.503907 17.222657 27.308594zm252.929687-56.273437c-2.914062 0-5.289062-2.371094-5.289062-5.289063 0-2.917968 2.375-5.289062 5.289062-5.289062 2.917969 0 5.292969 2.371094 5.292969 5.289062 0 2.917969-2.375 5.289063-5.292969 5.289063zm-23.078125-30.199219c.273438-.265625.726563-.574219 1.4375-.5625 36.246094 1.027344 66.597657 7.859375 89.351563 15.265625h-50.203125c-3.523438-6.019531-10.042969-10.082031-17.507813-10.082031s-13.984375 4.0625-17.507812 10.082031h-6.175782v-13.277344c0-.691406.328126-1.15625.605469-1.425781zm0 0"/><path d="m392.621094 60.761719c-49.011719 0-88.882813 39.875-88.882813 88.882812 0 49.011719 39.871094 88.882813 88.882813 88.882813 49.011718 0 88.882812-39.871094 88.882812-88.882813 0-49.007812-39.871094-88.882812-88.882812-88.882812zm0 162.765625c-40.738282 0-73.882813-33.144532-73.882813-73.882813s33.144531-73.882812 73.882813-73.882812c40.738281 0 73.882812 33.144531 73.882812 73.882812s-33.144531 73.882813-73.882812 73.882813zm0 0"/><path d="m392.621094 81.710938c-37.460938 0-67.933594 30.476562-67.933594 67.933593 0 37.460938 30.472656 67.9375 67.933594 67.9375 37.457031 0 67.933594-30.476562 67.933594-67.9375 0-37.457031-30.476563-67.933593-67.933594-67.933593zm42.339844 99.667968-19.015626-19.015625c.898438-1.640625 1.621094-3.390625 2.160157-5.21875h26.910156c-1.285156 9-4.828125 17.28125-10.054687 24.234375zm-94.734376-24.234375h26.910157c.539062 1.828125 1.261719 3.578125 2.160156 5.21875l-19.015625 19.015625c-5.226562-6.953125-8.769531-15.234375-10.054688-24.234375zm10.054688-39.234375 19.015625 19.019532c-.898437 1.640624-1.621094 3.386718-2.160156 5.214843h-26.910157c1.285157-9 4.828126-17.277343 10.054688-24.234375zm42.339844 43.304688c-6.378906 0-11.570313-5.1875-11.570313-11.570313 0-6.378906 5.191407-11.570312 11.570313-11.570312s11.570312 5.191406 11.570312 11.570312c0 6.382813-5.191406 11.570313-11.570312 11.570313zm12.714844-34.894532c-1.640626-.894531-3.386719-1.621093-5.214844-2.160156v-26.910156c9 1.285156 17.277344 4.828125 24.234375 10.054688zm-20.214844-2.160156c-1.828125.539063-3.574219 1.265625-5.21875 2.160156l-19.015625-19.015624c6.953125-5.226563 15.234375-8.769532 24.234375-10.054688zm-5.21875 48.808594c1.644531.898438 3.390625 1.625 5.21875 2.164062v26.90625c-9-1.28125-17.28125-4.828124-24.234375-10.054687zm20.21875 2.164062c1.828125-.539062 3.574218-1.265624 5.214844-2.164062l19.019531 19.015625c-6.957031 5.226563-15.234375 8.773437-24.234375 10.054687zm17.984375-32.988281c-.539063-1.824219-1.261719-3.574219-2.160157-5.214843l19.015626-19.019532c5.226562 6.957032 8.773437 15.234375 10.054687 24.234375zm0 0"/><path d="m186.15625 253.472656c0 4.144532 3.359375 7.5 7.5 7.5 4.144531 0 7.5-3.355468 7.5-7.5v-.085937c0-4.144531-3.355469-7.457031-7.5-7.457031-4.140625 0-7.5 3.402343-7.5 7.542968zm0 0"/><path d="m312.535156 253.472656v-.085937c0-4.144531-3.355468-7.457031-7.5-7.457031-4.140625 0-7.5 3.402343-7.5 7.542968 0 4.144532 3.359375 7.5 7.5 7.5 4.144532 0 7.5-3.355468 7.5-7.5zm0 0"/><path d="m120.78125 217.625h.042969c4.121093 0 7.476562-3.332031 7.5-7.460938v-.085937c.023437-4.140625-3.316407-7.476563-7.457031-7.5-.015626 0-.027344 0-.042969 0-4.125 0-7.476563 3.375-7.5 7.503906-.023438 4.144531 3.316406 7.519531 7.457031 7.542969zm0 0"/><path d="m271.375 87.40625-57.199219 26.453125c-5.261719 2.429687-8.0625 8.082031-6.816406 13.742187 1.242187 5.65625 6.160156 9.609376 11.953125 9.609376h57.203125c6.746094 0 12.238281-5.492188 12.238281-12.242188v-26.453125c0-4.195313-2.109375-8.050781-5.648437-10.3125-3.535157-2.261719-7.917969-2.558594-11.730469-.796875zm2.378906 34.804688h-41.902344l41.902344-19.378907zm0 0"/><path d="m189.78125 114.394531-7.621094 7.621094c-2.929687 2.925781-2.929687 7.675781 0 10.605469 1.464844 1.460937 3.382813 2.195312 5.304688 2.195312 1.917968 0 3.835937-.730468 5.300781-2.195312l7.621094-7.621094c2.929687-2.929688 2.929687-7.679688 0-10.605469-2.925781-2.929687-7.675781-2.929687-10.605469 0zm0 0"/><path d="m165.320312 114.394531-7.621093 7.621094c-2.929688 2.925781-2.929688 7.675781 0 10.605469 1.460937 1.464844 3.382812 2.195312 5.300781 2.195312 1.921875 0 3.839844-.730468 5.304688-2.195312l7.621093-7.621094c2.929688-2.929688 2.929688-7.675781 0-10.605469-2.929687-2.929687-7.675781-2.929687-10.605469 0zm0 0"/><path d="m486.0625 311.003906c-12.722656-1.875-30.851562-3.554687-53.878906-4.988281-47.085938-2.933594-109.65625-4.550781-176.183594-4.550781s-129.097656 1.617187-176.183594 4.550781c-23.03125 1.433594-41.160156 3.113281-53.882812 4.988281-15.183594 2.238282-25.933594 4.511719-25.933594 13.445313 0 8.9375 10.75 11.210937 25.933594 13.449219 12.722656 1.875 30.851562 3.554687 53.882812 4.988281 47.085938 2.933593 109.65625 4.550781 176.183594 4.550781s129.097656-1.617188 176.183594-4.550781c23.03125-1.4375 41.160156-3.113281 53.882812-4.988281 15.1875-2.238282 25.933594-4.511719 25.933594-13.449219 0-8.933594-10.75-11.207031-25.9375-13.445313zm-230.0625 21.433594c-103.710938 0-179.207031-3.835938-216.929688-7.984375 37.722657-4.152344 113.21875-7.988281 216.929688-7.988281s179.207031 3.835937 216.929688 7.988281c-37.722657 4.148437-113.21875 7.984375-216.929688 7.984375zm0 0"/></svg>