<svg id="_x33_0" enable-background="new 0 0 64 64" height="512" viewBox="0 0 64 64" width="512" xmlns="http://www.w3.org/2000/svg"><g><g><g><path d="m55.02 16c-.01 0-.01 0-.02 0-3.87 0-7-3.13-7-7 0-.01 0-.02 0-.03.02-3.86 3.14-6.97 7-6.97 3.87 0 7 3.13 7 7 0 3.86-3.12 6.99-6.98 7z" fill="#fcd770"/></g><g><circle cx="6" cy="16" fill="#ff826e" r="4"/></g><g><circle cx="27" cy="7" fill="#ff826e" r="5"/></g><g><circle cx="57" cy="51" fill="#ff826e" r="5"/></g><g><path d="m39.79 48.53 1.14.76c-1.35 3.84-3.89 7.12-7.19 9.38l-.18-.89c-.34-1.67-1.68-2.94-3.36-3.18l-1.46-.21c-1.61-.22-2.91-1.41-3.31-2.97 2.86-2.29 5.83-4.9 8.8-7.76l2.02.18c1.05.1 1.92.84 2.17 1.86l.35 1.37c.15.6.51 1.12 1.02 1.46z" fill="#69d6f4"/></g><g><path d="m6.28 43.24-2.25.75h-.01c-.01-.33-.02-.66-.02-.99 0-4.55 1.6-8.73 4.27-12h.01 2.38c.82 0 1.57.46 1.94 1.2l.8 1.6c.37.74 1.12 1.2 1.94 1.2.43 0 .85-.13 1.21-.36l1.19-.8c.82-.55 1.79-.84 2.77-.84h1.66c.78 0 1.49-.32 2-.83s.83-1.22.83-2c0-.75-.3-1.47-.83-2l-.34-.34c-.53-.53-.83-1.25-.83-2v-1.83c1.02 0 2.03.08 3.01.24 2.53.4 4.9 1.31 6.99 2.6v.01 2.92c0 .77-.37 1.5-.99 1.97l-2.02 1.52c-.62.47-.99 1.2-.99 1.97v1.02c0 .49-.14.97-.41 1.37l-1.18 1.76c-.27.4-.41.88-.41 1.37 0 .63.24 1.22.64 1.66s.96.73 1.6.79l4.99.46c-2.97 2.86-5.94 5.47-8.8 7.76-.01-.04-.02-.08-.03-.12l-.7-3.15c-.2-.92-.72-1.71-1.41-2.27-.69-.55-1.57-.88-2.52-.88-.51 0-1.01.1-1.49.29l-3.63 1.45c-.43.17-.89.26-1.35.26h-.06c-1.37 0-2.63-.77-3.24-2s-1.87-2-3.24-2c-.5 0-1 .08-1.48.24z" fill="#69d6f4"/></g><g><path d="m24.17 28.17c.53.53.83 1.25.83 2 0 .78-.32 1.49-.83 2s-1.22.83-2 .83h-1.66c-.98 0-1.95.29-2.77.84l-1.19.8c-.36.23-.78.36-1.21.36-.82 0-1.57-.46-1.94-1.2l-.8-1.6c-.37-.74-1.12-1.2-1.94-1.2h-2.38c3.48-4.27 8.78-7 14.72-7v1.83c0 .75.3 1.47.83 2z" fill="#b4dd7f"/></g><g><path d="m42 43c0 2.21-.38 4.32-1.07 6.29l-1.14-.76c-.51-.34-.87-.86-1.02-1.46l-.35-1.37c-.25-1.02-1.12-1.76-2.17-1.86l-2.02-.18c.58-.56 1.15-1.12 1.73-1.7 1.75-1.75 3.41-3.51 4.97-5.25.69 1.97 1.07 4.09 1.07 6.29z" fill="#b4dd7f"/></g><g><path d="m40.93 36.71c-1.56 1.74-3.22 3.5-4.97 5.25-.58.58-1.15 1.14-1.73 1.7l-4.99-.46c-.64-.06-1.2-.35-1.6-.79s-.64-1.03-.64-1.66c0-.49.14-.97.41-1.37l1.18-1.76c.27-.4.41-.88.41-1.37v-1.02c0-.77.37-1.5.99-1.97l2.02-1.52c.62-.47.99-1.2.99-1.97v-2.92c3.66 2.26 6.49 5.74 7.93 9.86z" fill="#b4dd7f"/></g><g><path d="m25.4 51.3c.01.04.02.08.03.12-4.32 3.46-8.42 6.2-11.93 8.02-3.85-2.21-6.85-5.76-8.38-10-.62-1.72-1-3.55-1.1-5.45h.01l2.25-.75c.48-.16.98-.24 1.48-.24 1.37 0 2.63.77 3.24 2s1.87 2 3.24 2h.06c.46 0 .92-.09 1.35-.26l3.63-1.45c.48-.19.98-.29 1.49-.29.95 0 1.83.33 2.52.88.69.56 1.21 1.35 1.41 2.27z" fill="#b4dd7f"/></g><g><path d="m33.56 57.78.18.89c-3.05 2.1-6.76 3.33-10.74 3.33-3.46 0-6.7-.93-9.5-2.56 3.51-1.82 7.61-4.56 11.93-8.02.4 1.56 1.7 2.75 3.31 2.97l1.46.21c1.68.24 3.02 1.51 3.36 3.18z" fill="#b4dd7f"/></g></g><g><path d="m53.226 21.977c.906-1.565 1.8-3.296 2.493-5.013 4.075-.366 7.281-3.796 7.281-7.964 0-4.411-3.589-8-8-8-4.169 0-7.599 3.206-7.964 7.282-5.819 2.346-13.541 7.731-21.375 14.916-.872-.117-1.756-.198-2.661-.198-11.028 0-20 8.972-20 20 0 2.215.377 4.34 1.045 6.333-3.279 6.065-3.918 10.37-1.834 12.456.831.831 1.982 1.213 3.385 1.213 2.128 0 4.839-.89 7.879-2.419 2.833 1.541 6.079 2.417 9.525 2.417 11.028 0 20-8.972 20-20 0-2.11-.334-4.143-.942-6.055 4.627-5.189 8.497-10.355 11.168-14.968zm1.774-18.977c3.309 0 6 2.691 6 6 0 2.801-1.932 5.153-4.531 5.81.77-2.664.814-5.105-.68-6.6l-1.414 1.414c.722.723.911 2.45-.049 5.335-2.992-.336-5.326-2.878-5.326-5.959 0-3.309 2.691-6 6-6zm-7.868 7.407c.586 3.283 3.176 5.874 6.458 6.461-.525 1.213-1.208 2.574-2.095 4.106-2.474 4.273-6.021 9.043-10.254 13.867-2.449-5.454-7.268-9.604-13.141-11.157 6.908-6.189 13.83-11.016 19.032-13.277zm-11.884 30.841c-.465.465-.928.922-1.39 1.371l-4.524-.411c-.76-.068-1.334-.697-1.334-1.461 0-.29.085-.571.247-.813l1.17-1.758c.381-.571.583-1.236.583-1.923v-1.02c0-.459.219-.898.587-1.174l2.026-1.52c.868-.65 1.387-1.687 1.387-2.772v-.983c2.563 1.988 4.572 4.646 5.767 7.717-1.442 1.587-2.947 3.175-4.519 4.747zm-9.194 8.383-.378-1.7c-.514-2.314-2.53-3.931-4.902-3.931-.642 0-1.27.121-1.865.359l-3.634 1.453c-.31.125-.637.188-1.039.188-.998 0-1.895-.555-2.341-1.447-.788-1.574-2.371-2.553-4.131-2.553-.612 0-1.219.099-1.805.293l-.939.313c.087-3.99 1.478-7.658 3.764-10.606h1.874c.447 0 .848.248 1.048.648l.8 1.599c.54 1.081 1.627 1.753 2.836 1.753.629 0 1.237-.185 1.76-.533l1.193-.795c.659-.44 1.426-.672 2.219-.672h1.658c2.111 0 3.828-1.717 3.828-3.829 0-1.022-.398-1.984-1.122-2.707l-.343-.343c-.345-.345-.535-.804-.535-1.292v-.778c2.903.161 5.622 1.004 8 2.385v2.331c0 .459-.219.898-.587 1.174l-2.026 1.52c-.868.65-1.387 1.686-1.387 2.772v1.02c0 .29-.085.571-.247.813l-1.17 1.758c-.381.571-.583 1.236-.583 1.923 0 1.806 1.355 3.29 3.153 3.453l2.779.253c-2.003 1.876-3.971 3.605-5.878 5.178zm-20.968-4.939 1.504-.502c.381-.126.776-.19 1.174-.19.998 0 1.895.555 2.341 1.447.788 1.574 2.371 2.553 4.198 2.553.59 0 1.167-.111 1.715-.33l3.635-1.454c.358-.143.735-.216 1.121-.216 1.427 0 2.64.973 2.949 2.365l.594 2.672c-3.969 3.142-7.63 5.577-10.759 7.259-4.672-2.895-7.933-7.854-8.472-13.604zm18.036-16.156.343.343c.345.345.535.804.535 1.292 0 1.009-.82 1.829-1.829 1.829h-1.658c-1.189 0-2.34.349-3.328 1.008l-1.193.795c-.564.377-1.395.156-1.698-.45l-.8-1.599c-.54-1.082-1.627-1.754-2.836-1.754h-.074c3.007-2.873 6.999-4.705 11.416-4.949v.778c0 1.022.398 1.984 1.122 2.707zm-19.497 31.839c-1.204-1.205-.665-4.367 1.419-8.624 1.487 3.037 3.71 5.644 6.45 7.58-3.892 1.806-6.709 2.204-7.869 1.044zm12.028-.959c2.949-1.687 6.137-3.896 9.368-6.421.763 1.267 2.067 2.171 3.577 2.387l1.459.208c1.257.18 2.269 1.137 2.518 2.382l.043.217c-2.786 1.77-6.079 2.811-9.618 2.811-2.618 0-5.1-.575-7.347-1.584zm18.704-2.467c-.601-1.76-2.142-3.071-4.018-3.339l-1.459-.208c-.997-.142-1.84-.786-2.269-1.67 2.687-2.179 5.381-4.555 7.974-7.037l1.58.144c.621.056 1.139.5 1.29 1.105l.344 1.373c.21.839.721 1.565 1.441 2.045l.465.309c-1.147 2.859-2.997 5.36-5.348 7.278zm6.643-13.949c0 1.629-.237 3.2-.644 4.702l-.007-.005c-.305-.203-.521-.511-.61-.866l-.344-1.373c-.348-1.393-1.523-2.419-2.94-2.594.068-.068.139-.134.207-.202 1.313-1.313 2.57-2.638 3.796-3.965.341 1.382.542 2.818.542 4.303z"/><path d="m27 13c3.309 0 6-2.691 6-6s-2.691-6-6-6-6 2.691-6 6 2.691 6 6 6zm0-10c2.206 0 4 1.794 4 4s-1.794 4-4 4-4-1.794-4-4 1.794-4 4-4z"/><path d="m57 45c-3.309 0-6 2.691-6 6s2.691 6 6 6 6-2.691 6-6-2.691-6-6-6zm0 10c-2.206 0-4-1.794-4-4s1.794-4 4-4 4 1.794 4 4-1.794 4-4 4z"/><path d="m6 21c2.757 0 5-2.243 5-5s-2.243-5-5-5-5 2.243-5 5 2.243 5 5 5zm0-8c1.654 0 3 1.346 3 3s-1.346 3-3 3-3-1.346-3-3 1.346-3 3-3z"/></g></g></svg>