<?xml version="1.0"?>
<svg xmlns="http://www.w3.org/2000/svg" xmlns:xlink="http://www.w3.org/1999/xlink" xmlns:svgjs="http://svgjs.com/svgjs" version="1.1" width="512" height="512" x="0" y="0" viewBox="0 0 60 60" style="enable-background:new 0 0 512 512" xml:space="preserve" class=""><g>
<g xmlns="http://www.w3.org/2000/svg">
	<g>
		<path d="M44,58H6V6c0-0.2,0-4,4-4h35.5C44.6,3,44,4.4,44,6v3h2V7h9c0.6,0,1-0.4,1-1c0-3.4-2.6-6-6-6H10C5.3,0,4,3.9,4,6v53    c0,0.6,0.4,1,1,1h40c0.6,0,1-0.4,1-1v-7h-2V58z M53.9,5h-7.8c0.1-0.4,0.3-0.8,0.5-1.2l0.1-0.1c0.1-0.2,0.2-0.3,0.4-0.4    c0.1-0.1,0.1-0.1,0.2-0.2c0.1-0.1,0.2-0.2,0.4-0.3c0.1,0,0.1-0.1,0.2-0.1c0.1-0.1,0.3-0.2,0.5-0.2c0.1,0,0.1-0.1,0.2-0.1    c0.2-0.1,0.4-0.1,0.5-0.2c0.1,0,0.1,0,0.2,0c0.2,0,0.5-0.1,0.8-0.1C51.9,2,53.5,3.3,53.9,5z" fill="#00cb16" data-original="#000000" style=""/>
		<rect x="9" y="6" width="8" height="2" fill="#00cb16" data-original="#000000" style=""/>
		<rect x="9" y="10" width="14" height="2" fill="#00cb16" data-original="#000000" style=""/>
		<rect x="9" y="16" width="22" height="2" fill="#00cb16" data-original="#000000" style=""/>
		<rect x="9" y="21" width="22" height="2" fill="#00cb16" data-original="#000000" style=""/>
		<rect x="9" y="26" width="22" height="2" fill="#00cb16" data-original="#000000" style=""/>
		<rect x="9" y="31" width="24" height="2" fill="#00cb16" data-original="#000000" style=""/>
		<rect x="9" y="36" width="24" height="2" fill="#00cb16" data-original="#000000" style=""/>
		<path d="M45,11c-6.1,0-11,4.9-11,11c0,2.9,1.1,5.6,3,7.6V53c0,0.4,0.2,0.7,0.5,0.9C37.7,54,37.8,54,38,54s0.4-0.1,0.6-0.2l6.4-4.6    l6.4,4.6c0.2,0.1,0.4,0.2,0.6,0.2s0.3,0,0.5-0.1c0.3-0.2,0.5-0.5,0.5-0.9V29.6c1.9-2,3-4.6,3-7.6C56,15.9,51.1,11,45,11z M45,13    c5,0,9,4,9,9s-4,9-9,9s-9-4-9-9S40,13,45,13z M39,31.2c1.5,0.9,3.2,1.6,5,1.7v14.6l-5,3.6V31.2z M46,47.5V32.9    c1.8-0.2,3.5-0.8,5-1.7v19.9L46,47.5z" fill="#00cb16" data-original="#000000" style=""/>
		<rect x="44" y="21" width="2" height="2" fill="#00cb16" data-original="#000000" style=""/>
		<rect x="48" y="21" width="2" height="2" fill="#00cb16" data-original="#000000" style=""/>
		<rect x="44" y="25" width="2" height="2" fill="#00cb16" data-original="#000000" style=""/>
		<rect x="40" y="21" width="2" height="2" fill="#00cb16" data-original="#000000" style=""/>
		<rect x="44" y="17" width="2" height="2" fill="#00cb16" data-original="#000000" style=""/>
		<rect x="9" y="43" width="2" height="2" fill="#00cb16" data-original="#000000" style=""/>
		<rect x="9" y="47" width="2" height="2" fill="#00cb16" data-original="#000000" style=""/>
		<rect x="9" y="51" width="2" height="2" fill="#00cb16" data-original="#000000" style=""/>
		<rect x="13" y="43" width="2" height="2" fill="#00cb16" data-original="#000000" style=""/>
		<rect x="13" y="47" width="2" height="2" fill="#00cb16" data-original="#000000" style=""/>
		<rect x="13" y="51" width="2" height="2" fill="#00cb16" data-original="#000000" style=""/>
		<rect x="17" y="43" width="2" height="2" fill="#00cb16" data-original="#000000" style=""/>
		<rect x="17" y="47" width="2" height="2" fill="#00cb16" data-original="#000000" style=""/>
		<rect x="17" y="51" width="2" height="2" fill="#00cb16" data-original="#000000" style=""/>
		<rect x="21" y="43" width="2" height="2" fill="#00cb16" data-original="#000000" style=""/>
		<rect x="21" y="47" width="2" height="2" fill="#00cb16" data-original="#000000" style=""/>
		<rect x="21" y="51" width="2" height="2" fill="#00cb16" data-original="#000000" style=""/>
		<rect x="25" y="43" width="2" height="2" fill="#00cb16" data-original="#000000" style=""/>
		<rect x="25" y="47" width="2" height="2" fill="#00cb16" data-original="#000000" style=""/>
		<rect x="25" y="51" width="2" height="2" fill="#00cb16" data-original="#000000" style=""/>
		<rect x="29" y="43" width="2" height="2" fill="#00cb16" data-original="#000000" style=""/>
		<rect x="29" y="47" width="2" height="2" fill="#00cb16" data-original="#000000" style=""/>
		<rect x="29" y="51" width="2" height="2" fill="#00cb16" data-original="#000000" style=""/>
	</g>
</g>
<g xmlns="http://www.w3.org/2000/svg">
</g>
<g xmlns="http://www.w3.org/2000/svg">
</g>
<g xmlns="http://www.w3.org/2000/svg">
</g>
<g xmlns="http://www.w3.org/2000/svg">
</g>
<g xmlns="http://www.w3.org/2000/svg">
</g>
<g xmlns="http://www.w3.org/2000/svg">
</g>
<g xmlns="http://www.w3.org/2000/svg">
</g>
<g xmlns="http://www.w3.org/2000/svg">
</g>
<g xmlns="http://www.w3.org/2000/svg">
</g>
<g xmlns="http://www.w3.org/2000/svg">
</g>
<g xmlns="http://www.w3.org/2000/svg">
</g>
<g xmlns="http://www.w3.org/2000/svg">
</g>
<g xmlns="http://www.w3.org/2000/svg">
</g>
<g xmlns="http://www.w3.org/2000/svg">
</g>
<g xmlns="http://www.w3.org/2000/svg">
</g>
</g></svg>
