<svg height="512pt" viewBox="0 -35 512 512" width="512pt" xmlns="http://www.w3.org/2000/svg"><path d="m251.585938 114.757812 19.421874-23.304687c1.671876-2.023437 4.167969-3.191406 6.796876-3.175781h62.320312c2.628906-.015625 5.125 1.152344 6.800781 3.175781l41.488281 49.789063-141.242187 26.480468zm0 0" fill="#b19046"/><path d="m136.828125 114.757812 19.421875-23.304687c1.671875-2.023437 4.167969-3.191406 6.796875-3.175781h62.320313c2.628906-.015625 5.125 1.152344 6.796874 3.175781l19.421876 23.304687 22.070312 26.484376-132.414062 35.308593zm0 0" fill="#e4c05c"/><path d="m4.09375 136.332031 37.386719-44.867187c1.683593-2.019532 4.175781-3.1875 6.804687-3.1875h62.335938c2.621094 0 5.109375 1.164062 6.785156 3.175781l38.84375 46.609375c1.675781 2.015625 4.160156 3.179688 6.78125 3.179688h331.3125c9.75 0 17.65625 7.902343 17.65625 17.65625v264.824218c0 9.753906-7.90625 17.65625-17.65625 17.65625h-476.6875c-9.75 0-17.65625-7.902344-17.65625-17.65625v-276.089844c0-4.128906 1.449219-8.128906 4.09375-11.300781zm0 0" fill="#f3d55b"/><path d="m52.964844 211.863281h141.242187c4.875 0 8.828125 3.949219 8.828125 8.828125v141.238282c0 4.875-3.953125 8.828124-8.828125 8.828124h-141.242187c-4.875 0-8.828125-3.953124-8.828125-8.828124v-141.238282c0-4.878906 3.953125-8.828125 8.828125-8.828125zm0 0" fill="#67b9cc"/><g fill="#b19046"><path d="m432.550781 229.515625h-185.378906c-4.875 0-8.828125-3.949219-8.828125-8.824219 0-4.878906 3.953125-8.828125 8.828125-8.828125h185.378906c4.875 0 8.828125 3.949219 8.828125 8.828125 0 4.875-3.953125 8.824219-8.828125 8.824219zm0 0"/><path d="m414.898438 264.828125h-167.726563c-4.875 0-8.828125-3.953125-8.828125-8.828125s3.953125-8.828125 8.828125-8.828125h167.726563c4.875 0 8.824218 3.953125 8.824218 8.828125s-3.949218 8.828125-8.824218 8.828125zm0 0"/><path d="m388.414062 300.136719h-141.242187c-4.875 0-8.828125-3.949219-8.828125-8.828125 0-4.875 3.953125-8.824219 8.828125-8.824219h141.242187c4.875 0 8.828126 3.949219 8.828126 8.824219 0 4.878906-3.953126 8.828125-8.828126 8.828125zm0 0"/><path d="m361.929688 335.449219h-114.757813c-4.875 0-8.828125-3.953125-8.828125-8.828125s3.953125-8.828125 8.828125-8.828125h114.757813c4.875 0 8.828124 3.953125 8.828124 8.828125s-3.953124 8.828125-8.828124 8.828125zm0 0"/><path d="m335.449219 370.757812h-88.277344c-4.875 0-8.828125-3.953124-8.828125-8.828124s3.953125-8.828126 8.828125-8.828126h88.277344c4.875 0 8.828125 3.953126 8.828125 8.828126s-3.953125 8.828124-8.828125 8.828124zm0 0"/></g><path d="m141.242188 370.757812h-88.277344c-4.867188-.011718-8.8125-3.957031-8.828125-8.828124v-7.324219l36.371093-66.738281c1.539063-2.855469 4.523438-4.632813 7.769532-4.632813 3.242187 0 6.226562 1.777344 7.765625 4.632813l32.398437 59.320312zm0 0" fill="#a5a5a4"/><path d="m200.652344 367.933594c-1.648438 1.816406-3.992188 2.847656-6.445313 2.824218h-52.964843l-12.800782-23.570312 22.6875-41.664062c1.566406-2.820313 4.542969-4.570313 7.769532-4.570313 3.226562 0 6.199218 1.75 7.765624 4.570313zm0 0" fill="#5e5f62"/><path d="m150.070312 256c0 9.75-7.90625 17.65625-17.65625 17.65625s-17.65625-7.90625-17.65625-17.65625 7.90625-17.65625 17.65625-17.65625 17.65625 7.90625 17.65625 17.65625zm0 0" fill="#f3d55b"/><path d="m194.207031 61.792969c-4.875 0-8.828125-3.953125-8.828125-8.828125v-35.308594h-105.929687c-4.875 0-8.828125-3.953125-8.828125-8.828125s3.953125-8.828125 8.828125-8.828125h114.757812c4.875 0 8.828125 3.953125 8.828125 8.828125v44.136719c0 4.875-3.953125 8.828125-8.828125 8.828125zm0 0" fill="#67b9cc"/><path d="m308.964844 61.792969c-4.875 0-8.828125-3.953125-8.828125-8.828125v-35.308594h-105.929688c-4.875 0-8.828125-3.953125-8.828125-8.828125s3.953125-8.828125 8.828125-8.828125h105.929688c9.746093.0117188 17.644531 7.910156 17.65625 17.65625v35.308594c0 4.875-3.953125 8.828125-8.828125 8.828125zm0 0" fill="#67b9cc"/></svg>