<?xml version="1.0"?>
<svg xmlns="http://www.w3.org/2000/svg" xmlns:xlink="http://www.w3.org/1999/xlink" xmlns:svgjs="http://svgjs.com/svgjs" version="1.1" width="512" height="512" x="0" y="0" viewBox="0 0 50 60" style="enable-background:new 0 0 512 512" xml:space="preserve" class=""><g><g xmlns="http://www.w3.org/2000/svg" id="Page-1" fill="none" fill-rule="evenodd"><g id="046---Wizard" fill="rgb(0,0,0)" fill-rule="nonzero" transform="translate(-1)"><path id="Shape" d="m23.887 14.988c.0502796.0079293.1010991.0119414.152.012.4933949-.0007568.9124979-.3612618.987-.849.26817-1.9956201.9918311-3.9028009 2.115-5.574.3052981-.45086085.1937654-1.06311482-.2509092-1.37735512-.4446745-.31424031-1.0590336-.21495578-1.3820908.22335512-1.3026127 1.92446785-2.1437515 4.1234744-2.458 6.426-.083089.5455821.2915059 1.0553355.837 1.139z" fill="#8c00db" data-original="#000000" style="" class=""/><path id="Shape" d="m2.54 46-1.511 10.579c-.12198036.8606171.1353073 1.7318334.70525671 2.3881097s1.39652474 1.0330894 2.26574329 1.0328903h44c.8694196.0002402 1.6961835-.3767074 2.2661698-1.033218s.8271286-1.528007.7048302-2.388782l-1.511-10.578c-.1551915-1.0614282-.8638981-1.9598853-1.86-2.358l-11.707-4.684c1.3643942-1.6118087 2.1112113-3.6562516 2.107-5.768v-6.443c2.5438805-.5457297 4.9560582-1.5850046 7.1-3.059.8145153-.5898212 1.1179078-1.6614766.7334532-2.5907338s-1.3563044-1.4733163-2.3494532-1.3152662c-3.1306304.6002008-6.3656666.3353683-9.357-.766-.7593011-1.9141256-1.1419682-3.9568276-1.127-6.016.111562-1.9660907.8041379-3.85483919 1.99-5.427 1.675473-.29470367 3.389527-.29470367 5.065 0 .691154.12685039 1.3862658-.2009946 1.728-.815.3543186-.62064496.2738839-1.39804593-.2-1.933-2.6610458-3.06693819-6.5225482-4.82747388-10.583-4.825-5.943 0-10.987 5.836-11.992 13.876-.1798857 1.7601086-.5789766 3.4908463-1.188 5.152-2.974496 1.08899-6.1889253 1.3496008-9.3.754-.99142577-.1582333-1.9621825.3833276-2.34832616 1.3100724s-.08713335 1.9973753.72332616 2.5899276c2.14497425 1.4767116 4.5589345 2.5180611 7.105 3.065v6.443c-.0048225 2.1118558.7420692 4.1565031 2.107 5.768l-11.707 4.685c-.99595077.3977688-1.70467194 1.2958633-1.86 2.357zm.705 11.658c-.19277882-.2187961-.27882021-.511703-.235-.8l.408-2.858h14.582v4.0000193l-14-.0000193c-.28998139.0018131-.56608806-.1239891-.755-.344zm20.487-8.038c.2757048.5198765.7241364.9272844 1.268 1.152v7.228h-5v-4.63l3.534-4.125c.066.122.139.261.198.375zm4.537 0c.059-.114.133-.252.2-.374l3.531 4.124v4.63h-5v-7.228c.5443982-.2247724.9932287-.632575 1.269-1.153zm20.486 8.037c-.1889326.2198621-.4651218.3453361-.755.343l-14 .000032v-4.000032h14.582l.408 2.86c.0424531.2869754-.0434932.5780957-.235.796zm-1.276-11.376.821 5.719h-14.84l-3.97-4.634c1.3455997-2.4762311 2.9843881-4.7814803 4.881-6.866l12.486 5c.3317597.1308032.5687563.4283826.622.781zm-27.206-28.35c.8786755.3596976 1.7926845.6261579 2.727.795v1.96c-1.1295043-.2306876-2.2115811-.6516831-3.2-1.245.166-.441.323-.949.473-1.51zm4.727 1.035c.324.019.653.034 1 .034s.676-.015 1-.033v1.981c-.327.022-.644.052-1 .052s-.673-.03-1-.052zm4-.239c.9115595-.1639799 1.8036619-.422026 2.662-.77.155.559.322 1.062.492 1.508-.9757568.5803051-2.041849.9930186-3.154 1.221zm2-16.727c3.1610683-.00070719 6.1947439 1.24589561 8.442 3.469-1.7048034-.20535957-3.4314363-.13784704-5.115.2-.022 0-.043.008-.065.012-1.3311826.27512293-2.6075064.76916198-3.777 1.462-.4622053.28924015-.6075113.89543155-.3266637 1.36278388.2808477.46735233.8843167.62357974 1.3566637.35121612.191-.114.388-.2.583-.3-.6847111 1.38354247-1.0594192 2.8997792-1.098 4.443.0007659.9902608.0790046 1.978944.234 2.957-1.6497955.7186281-3.4347585 1.0743247-5.234 1.043-1.8192117.035697-3.6241666-.3274785-5.288-1.064.1-.563.2-1.155.28-1.812.985-7.875 5.891-12.124 10.008-12.124zm-22.982 19.856c.0103736-.0383809.0360519-.0708187.07102738-.0897244.03497547-.0189056.07617962-.0226205.11397262-.0102756 2.5998781.4481986 5.259414.4221114 7.85-.077-.1034639.3052602-.0534486.6416755.1343446.9036341s.4903379.4173404.8126554.4173659c.1448299.0004069.2879423-.0313579.419-.093.6584032-.3868833 1.1910752-.9556687 1.534-1.638 2.1525208 1.1953167 4.5856414 1.7929798 7.047 1.731 2.4466764.060212 4.865559-.5294985 7.01-1.709.079.138.14.236.152.255.3013572.4610546.9188074.5916088 1.381.292.1563526-.1071603.2780004-.257656.35-.433 2.9099976.7529923 5.9476595.8730257 8.908.352.0372682-.0126044.0781199-.0089463.1125558.0100791.0344358.0190253.0592774.0516618.0684442.0899209.0204583.0380254.0248895.0826447.0123098.1239512s-.0411292.0758816-.0793098.0960488c-2.421 1.789-7.494 3.923-17.915 3.923s-15.494-2.134-17.921-3.928c-.0758933-.043272-.10304648-.1394209-.061-.216zm11.982 5.874c1.793.17 3.779.27 6 .27s4.207-.1 6-.27v3.915l-3.219 4.007c-1.7555769-.8679694-3.8154231-.8679694-5.571 0l-3.21-4.002zm-4.0001619-.549c.6301619.118 1.3001619.222 2.0001619.317v4.152c-.0008828.4530829.1541233.8926789.439 1.245l3.207 4.005c.6006043.7465043 1.6438105.9668529 2.495.527 1.1754278-.5720514 2.5485722-.5720514 3.724 0 .2858686.1456.6021883.2213385.923.221.6077657.0028783 1.1834928-.2722773 1.563-.747l3.2-4c.2894113-.3527678.4480291-.7947072.449-1.251v-4.15c.7-.1 1.37-.2 2-.317v6.007c.0135016 1.9660683-.8188187 3.843069-2.285 5.153-.092.082-.182.182-.274.268-.011.011-.023.021-.034.033-2.743 2.587-5.262 6.856-6.915 10.056-.0948636.1839634-.2845178.2995503-.4915.2995503s-.3966364-.1155869-.4915-.2995503c-1.653-3.2-4.17-7.464-6.915-10.055-.012-.013-.025-.024-.038-.037-.092-.086-.182-.187-.275-.269-1.4637556-1.3096558-2.2944966-3.1849235-2.281-5.149zm-10.8588381 18.319 12.488-5c1.8954243 2.0836545 3.5341246 4.387101 4.881 6.861l-3.97 4.639h-14.84l.817-5.72c.05394999-.3527045.29174077-.6499429.624-.78z" fill="#8c00db" data-original="#000000" style="" class=""/><path id="Shape" d="m8 48.587c.12704037-.0000289.2529257-.0241202.371-.071l8-3.2c.3373017-.1286686.5790668-.4291499.6325514-.7861757s-.0896157-.7151623-.3744059-.937024c-.2847901-.2218616-.6670521-.2730009-1.0001455-.1338003l-8 3.2c-.44435531.1784013-.69988771.6467578-.60940755 1.116962.09048017.4702042.50157763.8102828.98040755.811038z" fill="#8c00db" data-original="#000000" style="" class=""/><path id="Shape" d="m35.629 45.315 8 3.2c.5130725.2048976 1.0951024-.0449275 1.3-.558s-.0449275-1.0951024-.558-1.3l-8-3.2c-.3330934-.1392006-.7153554-.0880613-1.0001455.1338003-.2847902.2218617-.4278905.5799982-.3744059.937024s.2952497.6575071.6325514.7861757z" fill="#8c00db" data-original="#000000" style="" class=""/></g></g></g></svg>
